<?xml version="1.0" encoding="UTF-8"?> <svg xmlns="http://www.w3.org/2000/svg" id="Laag_1" data-name="Laag 1" viewBox="0 0 1452.06 291.87"><defs><style> .cls-1 { fill: #fff; stroke-width: 0px; } </style></defs><g><path class="cls-1" d="M368.82,233.77v32.49h-12.69v-77.34h38.17c16.32,0,26.84,7.63,26.84,21.25,0,9.5-4.93,15.95-13.97,18.41,4.63,1.38,11.95,5.05,11.95,18.66v3.51c0,5.78-.05,12.16.92,15.51h-13.1c-1.19-3.38-1.11-8.95-1.11-15.85v-2.57c0-10.55-4.06-14.07-17.07-14.07h-19.94ZM368.82,223.6h22.37c11.38,0,16.83-4.01,16.83-12.58,0-7.88-5.5-11.93-16.48-11.93h-22.72v24.51h0Z"></path><path class="cls-1" d="M441.24,241.39c.56,9.69,7.17,16.87,17.7,16.87,8.17,0,12.56-3.17,15.3-8.07h12.16c-3.07,8.64-11.04,17.6-27.93,17.6-20.57,0-29.4-14.66-29.4-29.13,0-16.48,11-29.41,29.18-29.41,21.19,0,28.93,15.29,28.93,29.05,0,1.05,0,1.84-.05,3.1h-45.89,0ZM474.62,233.17c-.45-6.02-3.65-14.79-16.43-14.79-10.85,0-15.88,6.59-16.73,14.79h33.16Z"></path><path class="cls-1" d="M504.2,249.4c1.84,5.93,7.01,9.46,16.42,9.46,9.9,0,13.25-3.38,13.25-7.77s-2.7-7.01-16.07-8.66c-19.9-2.57-23.4-9.62-23.4-16.49,0-7.47,5.88-16.7,24-16.7,19.3,0,25.06,9.75,25.69,16.72h-12.13c-.82-3.16-3.03-7.99-14.16-7.99-9.39,0-11.33,3.97-11.33,6.84,0,3.69,2.41,5.9,14.53,7.55,21.26,2.95,24.93,9.66,24.93,17.76,0,10.01-7.62,17.66-26.1,17.66-15.93,0-25.96-6.73-27.83-18.39h12.2Z"></path><path class="cls-1" d="M606.85,250.08c0,5.4-.05,10.78.06,16.18h-11.78c-.22-1.53-.34-5.13-.39-8.68-2.78,5.82-7.58,10.21-19.6,10.21s-20.82-6.51-20.82-22.72v-34.29h12.16v32.14c0,8.14,3.15,14.87,12.47,14.87,11.12,0,15.74-6.48,15.74-21.79v-25.22h12.16v39.31h0Z"></path><path class="cls-1" d="M618.66,266.26v-81.83h12.16v81.83h-12.16Z"></path><path class="cls-1" d="M637.49,210.77h10.76v-17.49h12.21v17.49h14.07v9.32h-14.07v28.67c0,5.96,1.47,8.63,7.35,8.63,1.59,0,3.7-.06,5.29-.45v8.74c-2.63.87-5.8,1.07-9.21,1.07-12.02,0-15.63-5.33-15.63-16.22v-30.44h-10.76v-9.32h0Z"></path><path class="cls-1" d="M732.45,252.09c0,5.84.33,12.91.5,14.17h-11.54c-.44-1.85-.61-5.9-.65-7.67-2.94,5.52-9.24,9.19-20.68,9.19-15.56,0-21.41-9.44-21.41-17.89,0-14.29,12.86-18.26,28.83-18.26h13.06v-2.66c0-5.68-2.45-10.86-13.37-10.86-9.89,0-12.19,4.24-13.2,8.86h-12.16c.61-7.23,5.52-17.73,25.27-17.73,21.13,0,25.36,10.22,25.36,19.42v23.42h-.01ZM720.55,239.94c-1.62-.05-5.37-.05-12.79-.05-11.8,0-17.18,2.71-17.18,9.38,0,5.06,3.8,9.28,12.31,9.28,13.49,0,17.66-7.59,17.66-16.58v-2.03Z"></path><path class="cls-1" d="M744.15,224.77c0-4.68,0-9.9-.11-13.99h11.84c.22,1.82.38,6.12.43,9.51,2.44-4.97,8.05-11.04,19.69-11.04,13.18,0,21.54,8.13,21.54,23.13v33.89h-12.26v-31.78c0-8.45-3.24-15.28-12.97-15.28-10.73,0-15.95,8.04-15.95,20.2v26.87h-12.21v-41.51Z"></path><path class="cls-1" d="M863.63,248.57c-2.6,10.14-11.4,19.22-27.75,19.22-20.12,0-29.6-13.33-29.6-29.17s10.73-29.37,29.72-29.37,26.35,12.49,27.43,19.56h-12.16c-1.71-4.64-5.65-9.98-15.35-9.98-11.05,0-17.22,8.22-17.22,19.63s5.89,19.71,17.23,19.71c8.33,0,12.88-3.69,15.54-9.59h12.16,0Z"></path><path class="cls-1" d="M878.95,210.77c11.24,26.45,17.09,41.49,18.6,46.02h.21c1.83-5.49,7.17-21.11,17.01-46.02h12.54l-20.96,51.44c-9.77,24.05-13.2,29.66-28.36,29.66-2.14,0-5.61-.22-7.57-.59v-10.37c2.25.28,4.48.4,5.98.4,7.51,0,10.11-2.95,14.64-12.62l-25.46-57.92h13.37Z"></path></g><g><path class="cls-1" d="M618.15,155.03V.82h35.78v154.21h-35.78Z"></path><path class="cls-1" d="M672.34,155.03V.82h35.78v154.21h-35.78,0Z"></path><path class="cls-1" d="M838.29,123.33c0,14.71.66,29.27.9,31.71h-33.8c-.88-2.7-1.12-9.61-1.31-12.78-6.08,9.78-19.11,15.84-40.38,15.84-30.95,0-43.44-18.86-43.44-36.93,0-29.71,26-37.95,59.35-37.95h23.7v-3.56c0-9.17-3.98-16.58-20.59-16.58-15.46,0-18.87,5.8-20.34,12.27h-35.78c.95-13.95,10.81-36.52,55.56-36.52,49.13,0,56.12,23.13,56.12,42.05v42.45h.01ZM803.31,105.84c-2.59-.19-10.4-.19-23.07-.19-18.19,0-25.34,4.78-25.34,13.7,0,7.35,5.95,13.32,18.92,13.32,19.61,0,29.48-8.98,29.48-25.08v-1.75h.01Z"></path><path class="cls-1" d="M857.9.82h35.78v53.29c5.67-6.74,16.05-15.28,37.54-15.28,30.71,0,55.03,23.75,55.03,57.4,0,38.83-25.53,61.87-57.42,61.87-21.68,0-31.17-7.94-36.5-15.83-.03,2.93-.22,10.1-.46,12.77h-34.18c.22-16.36.22-25.23.22-37.74V.83h-.01ZM949.46,97.8c0-15.95-8.38-31.17-28.06-31.17s-28.6,12.68-28.6,31.72c0,17.97,9.59,31.58,28.24,31.58s28.42-14.2,28.42-32.12h0Z"></path><path class="cls-1" d="M1125.86,98.37c0,34.82-24.07,59.73-66.07,59.73s-63.68-28.33-63.68-59.7,22.31-59.56,65.14-59.56,64.62,31.47,64.62,59.54h-.01ZM1032.51,98.39c0,17.59,9.76,32.71,28.48,32.71s28.07-14.88,28.07-32.13-8.49-33.14-28.34-33.14-28.21,15.12-28.21,32.57h0Z"></path><path class="cls-1" d="M1125.86,98.37c0,34.82-24.07,59.73-66.07,59.73s-63.68-28.33-63.68-59.7,22.31-59.56,65.14-59.56,64.62,31.47,64.62,59.54h-.01ZM1032.51,98.39c0,17.59,9.76,32.71,28.48,32.71s28.07-14.88,28.07-32.13-8.49-33.14-28.34-33.14-28.21,15.12-28.21,32.57h0Z"></path><path class="cls-1" d="M1138.76,72.63c0-10.24,0-20.5-.22-30.74h34.95c.6,4,1.04,16.52,1.04,22.61,6.32-14.9,20.14-26.06,43.62-25.48v32.55c-25.59-.41-43.62,9.86-43.62,42.12v41.33h-35.78v-82.4h.01Z"></path><path class="cls-1" d="M1362.09,155.03V.82h35.78v154.21h-35.78Z"></path><path class="cls-1" d="M1416.28,155.03V.82h35.78v154.21h-35.78Z"></path><path class="cls-1" d="M579.49,38.83h-35c.03,29.91,20.44,56.91,60.33,57.3v-26.04c-16.62-1.07-25.31-15.04-25.33-31.27h0Z"></path><path class="cls-1" d="M509.5,38.83h35c-.03,29.91-20.44,56.91-60.33,57.3v-26.04c16.62-1.07,25.31-15.04,25.33-31.27h0Z"></path><path class="cls-1" d="M509.5,153.43h35c-.03-29.91-20.44-56.91-60.33-57.3v26.04c16.62,1.07,25.31,15.04,25.33,31.27h0Z"></path><path class="cls-1" d="M579.49,153.43h-35c.03-29.91,20.44-56.91,60.33-57.3v26.04c-16.62,1.07-25.31,15.04-25.33,31.27h0Z"></path><path class="cls-1" d="M1323.26,38.83h-35c.03,29.91,20.44,56.91,60.33,57.3v-26.04c-16.62-1.07-25.31-15.04-25.33-31.27h0Z"></path><path class="cls-1" d="M1253.27,38.83h35c-.03,29.91-20.44,56.91-60.33,57.3v-26.04c16.62-1.07,25.31-15.04,25.33-31.27h0Z"></path><path class="cls-1" d="M1323.26,97.02h-35c.03,29.91,20.44,56.91,60.33,57.3v-26.04c-16.62-1.07-25.31-15.04-25.33-31.27h0Z"></path><path class="cls-1" d="M1253.27,97.02h35c-.03,29.91-20.44,56.91-60.33,57.3v-26.04c16.62-1.07,25.31-15.04,25.33-31.27h0Z"></path><path class="cls-1" d="M475.07,116.84c-4.56,21.39-22.97,41.29-60.09,41.29-43.57,0-62.79-27.41-62.79-59.86,0-30.63,21.82-59.44,62.84-59.44,44.83,0,57.93,29.26,59.26,41.78h-35.78c-2.12-6.15-7.62-14.99-23.17-14.99-18.54,0-26.73,13.71-26.73,32.41s7.72,33.13,26.56,33.13c12.9,0,19.52-4.7,24.11-14.31h35.79Z"></path></g><path class="cls-1" d="M281.22,36.08c-19.25-1.24-29.36-17.33-29.51-36.08H0v266.76h281.23V36.08h-.01ZM70.31,133.37c46.48.46,70.27,31.93,70.31,66.78.04-34.85,23.83-66.32,70.31-66.78v30.34c-19.37,1.25-29.49,17.53-29.52,36.44h-81.57c-.03-18.9-10.15-35.19-29.52-36.44v-30.34h-.01ZM210.92,133.2c-46.48-.46-70.27-31.93-70.31-66.78-.04,34.85-23.83,66.32-70.31,66.78v-30.34c19.37-1.25,29.49-17.53,29.52-36.44h81.57c.03,18.9,10.15,35.19,29.52,36.44v30.34h.01Z"></path></svg>
